<?xml version="1.0" encoding="utf-8"?>
<!-- Svg Vector Icons : http://www.onlinewebfonts.com/icon -->
<!DOCTYPE svg PUBLIC "-//W3C//DTD SVG 1.1//EN" "http://www.w3.org/Graphics/SVG/1.1/DTD/svg11.dtd">
<svg version="1.1" xmlns="http://www.w3.org/2000/svg" xmlns:xlink="http://www.w3.org/1999/xlink" x="0px" y="0px" viewBox="0 0 1000 1000" enable-background="new 0 0 1000 1000" xml:space="preserve" fill="crimson" >
<metadata> Svg Vector Icons : http://www.onlinewebfonts.com/icon </metadata>
<g><path d="M500,820.1c-4.8,0-9.6-1.4-13.8-4.2L21,503.3c-11.4-7.6-14.4-23-6.7-34.4c7.6-11.4,23-14.4,34.4-6.7L500,765.4l451.4-303.3c11.4-7.6,26.8-4.6,34.4,6.7c7.6,11.4,4.6,26.8-6.7,34.4L513.8,815.9C509.6,818.7,504.8,820.1,500,820.1z"/><path d="M500,542.1c-4.8,0-9.6-1.4-13.8-4.2L21,225.3c-11.4-7.6-14.4-23-6.7-34.4c7.6-11.4,23-14.4,34.4-6.7L500,487.5l451.4-303.3c11.4-7.6,26.8-4.6,34.4,6.7c7.6,11.4,4.6,26.8-6.7,34.4L513.8,537.9C509.6,540.7,504.8,542.1,500,542.1z"/></g>
</svg>