<?xml version="1.0" encoding="iso-8859-1"?>
<!-- Generator: Adobe Illustrator 19.0.0, SVG Export Plug-In . SVG Version: 6.00 Build 0)  -->
<svg version="1.1" id="Layer_1" xmlns="http://www.w3.org/2000/svg" xmlns:xlink="http://www.w3.org/1999/xlink" x="0px" y="0px"
	 viewBox="0 0 490 490" style="enable-background:new 0 0 490 490;" xml:space="preserve">
<g>
	<g>
		<g>
			<path d="M429.976,90c-0.001-2.601-0.993-5.159-2.905-7.071l-80-80c-1.912-1.913-4.469-2.904-7.071-2.905V0H70
				c-5.522,0-10,4.477-10,10v470c0,5.523,4.478,10,10,10h350c5.522,0,10-4.477,10-10V90H429.976z M350,34.142L395.857,80H350V34.142
				z M410,470H80V20h250v70c0,5.523,4.478,10,10,10h70V470z"/>
			<path d="M260,187.038V190c0,56.349-23.208,96.94-68.979,120.645c-35.059,18.156-70.926,19.349-71.284,19.358L120,340l0.25,9.997
				c1.624-0.041,40.229-1.225,79.311-21.254C236.257,309.937,280,270.6,280,190v-2.962l23.415,20.488l13.17-15.052l-40-35
				c-3.77-3.299-9.4-3.299-13.17,0l-40,35l13.17,15.052L260,187.038z"/>
			<path d="M270,135c22.056,0,40-17.944,40-40c0-22.056-17.944-40-40-40c-22.056,0-40,17.944-40,40C230,117.056,247.944,135,270,135
				z M270,75c11.028,0,20,8.972,20,20s-8.972,20-20,20s-20-8.972-20-20S258.972,75,270,75z"/>
			<polygon points="147.071,202.929 132.929,217.071 155.857,240 132.929,262.929 147.071,277.071 170,254.143 192.929,277.071 
				207.071,262.929 184.143,240 207.071,217.071 192.929,202.929 170,225.857 			"/>
			<polygon points="302.071,262.929 287.929,277.071 310.857,300 287.929,322.929 302.071,337.071 325,314.143 347.929,337.071 
				362.071,322.929 339.143,300 362.071,277.071 347.929,262.929 325,285.857 			"/>
			<rect x="105" y="40" width="80" height="20"/>
			<rect x="105" y="80" width="50" height="20"/>
			<rect x="115" y="380" width="50" height="20"/>
			<rect x="115" y="420" width="210" height="20"/>
			<rect x="185" y="380" width="50" height="20"/>
			<rect x="255" y="380" width="50" height="20"/>
			<rect x="325" y="380" width="50" height="20"/>
		</g>
	</g>
</g>
<g>
</g>
<g>
</g>
<g>
</g>
<g>
</g>
<g>
</g>
<g>
</g>
<g>
</g>
<g>
</g>
<g>
</g>
<g>
</g>
<g>
</g>
<g>
</g>
<g>
</g>
<g>
</g>
<g>
</g>
</svg>
