<?xml version="1.0" standalone="no"?><!DOCTYPE svg PUBLIC "-//W3C//DTD SVG 1.1//EN" "http://www.w3.org/Graphics/SVG/1.1/DTD/svg11.dtd"><svg class="icon" height="512" viewBox="0 0 1024 1024" version="1.1" xmlns="http://www.w3.org/2000/svg"><path d="M765.647872 611.132416l-197.578752-62.405632c44.071936 13.902848 98.977792-41.157632 122.620928-123.134976 23.538688-81.695744 7.133184-159.243264-36.72576-173.31712l197.0432 62.183424c-43.966464-13.569024-98.601984 41.437184-122.247168 123.189248-23.646208 81.921024-7.13216 159.465472 36.887552 173.485056zM538.363904 890.256384L197.142528 782.543872c-73.080832-28.204032-113.562624-111.302656-90.774528-190.419968 23.699456-82.200576 106.698752-128.626688 185.247744-103.84384 2.144256 0.671744 332.374016 105.412608 332.374016 105.412608-44.071936-13.904896-98.92352 41.212928-122.568704 123.077632-23.64416 81.921024-7.13216 159.581184 36.942848 173.48608z m-78.27456-56.067072c-19.592192-6.467584-13.257728-94.229504-3.774464-131.79904 6.846464-27.124736 46.024704-106.012672 77.729792-106.012672 0 0-235.747328-71.784448-237.553664-72.365056-66.141184-19.72224-129.794048 2.9696-149.794816 68.528128-19.232768 63.05792 6.705152 133.17632 68.243456 155.715584l245.149696 85.933056z m-357.581824-593.9712c23.752704-82.200576 106.645504-128.627712 185.194496-103.899136 2.144256 0.72704 308.783104 97.956864 308.783104 97.956864-44.127232-13.906944-99.032064 41.156608-122.624 123.132928-23.64416 81.864704-7.07584 159.58016 36.943872 173.485056l-317.522944-105.3184c-73.080832-28.261376-113.615872-106.295296-90.774528-185.357312z m99.120128 153.411584l245.148672 85.933056c-19.592192-6.467584-13.257728-94.229504-3.774464-131.79904 6.846464-27.124736 46.024704-106.012672 77.729792-106.012672 0 0-235.747328-71.784448-237.553664-72.365056-66.141184-19.721216-129.794048 2.970624-149.794816 68.529152-19.23072 63.055872 6.7072 133.175296 68.24448 155.71456zM686.723072 775.08608c-23.75168 81.975296-79.300608 136.982528-124.23168 122.8544-44.931072-14.242816-62.142464-92.183552-38.49728-174.215168 23.699456-82.03264 79.24736-137.040896 124.23168-122.79808 44.931072 14.130176 62.142464 92.183552 38.49728 174.158848zM632.46336 655.541248c-28.417024-8.858624-63.538176 25.849856-78.44352 77.601792-14.958592 51.810304-4.073472 101.153792 24.237056 110.067712 28.417024 9.028608 63.537152-25.735168 78.550016-77.545472 14.850048-51.922944 4.0192-101.152768-24.343552-110.124032z m-7.66976-412.686336c44.93312 14.129152 62.143488 92.181504 38.445056 174.158848-23.699456 81.97632-79.352832 136.981504-124.23168 122.796032-44.931072-14.186496-62.088192-92.181504-38.38976-174.215168 23.64416-81.97632 79.300608-136.982528 124.176384-122.739712zM530.536448 375.07072c-15.01184 51.810304-4.074496 101.152768 24.288256 110.125056 28.418048 8.971264 63.537152-25.848832 78.550016-77.659136 15.01184-51.866624 4.074496-101.154816-24.342528-110.125056s-63.5904 25.792512-78.495744 77.659136z m386.420736 122.012672c-23.70048 81.97632-79.300608 136.928256-124.285952 122.853376-44.930048-14.242816-62.142464-92.237824-38.444032-174.271488 23.591936-81.97632 79.193088-136.982528 124.179456-122.796032 44.983296 14.185472 62.142464 92.18048 38.550528 174.214144z m-55.172096-116.461568c-27.506688-8.690688-61.446144 24.951808-75.870208 74.96704-14.529536 50.128896-4.020224 97.732608 23.432192 106.42432 27.557888 8.690688 61.44512-24.895488 75.921408-75.024384 14.53056-50.070528 4.021248-97.676288-23.483392-106.366976z" fill="#040000" /></svg>